<svg xmlns="http://www.w3.org/2000/svg" xmlns:xlink="http://www.w3.org/1999/xlink" viewBox="0 0 91.64 91.64"><defs><style>.cls-1{fill:url(#linear-gradient);}.cls-2{fill:#283135;}</style><linearGradient id="linear-gradient" x1="45.82" y1="95.96" x2="45.82" y2="-7.55" gradientUnits="userSpaceOnUse"><stop offset="0" stop-color="#f1cc30"/><stop offset="1" stop-color="#962349"/></linearGradient></defs><title>Asset 85asd</title><g id="Layer_2" data-name="Layer 2"><g id="OBJECTS"><circle class="cls-1" cx="45.82" cy="45.82" r="45.82"/><path class="cls-2" d="M27.26,61.19c0,3.49,7.23,2.11,17.72,2.11s20.25,1.39,20.25-2.11-8.5-6.33-19-6.33S27.26,57.7,27.26,61.19Z"/><circle class="cls-2" cx="25.95" cy="45.01" r="5.38"/><path class="cls-2" d="M37.48,41c-7.29,0-15.89-2-20.57-7.93-1.11-1.42-3.09.58-2,2,5.11,6.53,14.59,8.76,22.55,8.75a1.41,1.41,0,0,0,0-2.81Z"/><circle class="cls-2" cx="62.12" cy="45.01" r="5.38"/><path class="cls-2" d="M50.6,43.81c8,0,17.45-2.22,22.55-8.75,1.1-1.41-.87-3.41-2-2C66.49,39,57.89,41,50.6,41a1.41,1.41,0,0,0,0,2.81Z"/></g></g></svg>