<svg xmlns="http://www.w3.org/2000/svg" viewBox="0 0 91.64 91.64"><defs><style>.cls-1{fill:#f1cc30;}.cls-2{fill:#283135;}.cls-3{fill:#6889fa;}</style></defs><title>Asset 84asd</title><g id="Layer_2" data-name="Layer 2"><g id="OBJECTS"><circle class="cls-1" cx="45.82" cy="45.82" r="45.82"/><circle class="cls-2" cx="26.73" cy="42.67" r="5.38"/><circle class="cls-2" cx="63.74" cy="42.67" r="5.38"/><path class="cls-2" d="M17.7,39.7c2.71-5.74,8.58-8.56,14.58-5.92,1.26.55,2.35-1.3,1.09-1.86-7-3.09-14.25-.25-17.52,6.69-.59,1.25,1.27,2.34,1.86,1.09Z"/><path class="cls-2" d="M57.69,34.2C63.21,30.94,69.54,32,73,37.59c.74,1.17,2.6.09,1.86-1.09-4.1-6.5-11.72-8.05-18.3-4.16a1.08,1.08,0,0,0,1.09,1.86Z"/><path class="cls-2" d="M33.32,67.48a22.39,22.39,0,0,1,7.28-6.42c8.06-4.38,15.14.22,20.36,6.62.84,1,2.29-.44,1.46-1.46-5.15-6.32-12.32-11.25-20.63-8a23.75,23.75,0,0,0-10.25,8.21c-.78,1.08,1,2.11,1.78,1Z"/><path class="cls-3" d="M76.44,66.4s11,19.84,0,19.69C62.33,85.89,76.44,66.4,76.44,66.4Z"/></g></g></svg>