<svg xmlns="http://www.w3.org/2000/svg" xmlns:xlink="http://www.w3.org/1999/xlink" viewBox="0 0 91.64 91.64"><defs><style>.cls-1{fill:none;}.cls-2{fill:#f1cc30;}.cls-3{clip-path:url(#clip-path);}.cls-4{fill:#283135;}.cls-5{fill:#db5152;}</style><clipPath id="clip-path"><path class="cls-1" d="M19.38,48.37a26.48,26.48,0,0,0,52.88,0Z"/></clipPath></defs><title>Asset 82asd</title><g id="Layer_2" data-name="Layer 2"><g id="OBJECTS"><circle class="cls-2" cx="45.82" cy="45.82" r="45.82"/><g class="cls-3"><path class="cls-4" d="M19.38,48.37a26.48,26.48,0,0,0,52.88,0Z"/><circle class="cls-5" cx="34.4" cy="66.66" r="12.59"/><circle class="cls-5" cx="56.16" cy="66.66" r="12.59"/></g><path class="cls-4" d="M17.64,41c4.52-.67,9.11-2.54,13.5-3.81a1.09,1.09,0,0,0,.26-2l-11-8.38c-1.1-.84-2.17,1-1.09,1.86l11,8.38.26-2c-4.39,1.27-9,3.14-13.5,3.81-1.36.2-.78,2.28.57,2.07Z"/><path class="cls-4" d="M73,39c-4.52-.67-9.11-2.54-13.5-3.81l.26,2,11-8.38c1.09-.83,0-2.7-1.09-1.86l-11,8.38a1.09,1.09,0,0,0,.26,2c4.39,1.27,9,3.14,13.5,3.81,1.35.2,1.94-1.87.57-2.07Z"/></g></g></svg>