<svg xmlns="http://www.w3.org/2000/svg" viewBox="0 0 91.64 91.64"><defs><style>.cls-1{fill:#f1cc30;}.cls-2{fill:#283135;}</style></defs><title>Asset 83asd</title><g id="Layer_2" data-name="Layer 2"><g id="OBJECTS"><circle class="cls-1" cx="45.82" cy="45.82" r="45.82"/><ellipse class="cls-2" cx="46.41" cy="61.24" rx="12.48" ry="17.79"/><ellipse class="cls-2" cx="65.35" cy="32.34" rx="6.24" ry="7.96" transform="translate(-6.51 19.97) rotate(-16.56)"/><ellipse class="cls-2" cx="24.89" cy="32.34" rx="7.96" ry="6.24" transform="translate(-13.83 45.21) rotate(-70.8)"/><path class="cls-2" d="M56.74,21.62a14.3,14.3,0,0,1,3.86-4.44c5.13-3.81,9.85.12,13.08,4.44.82,1.1,2.69,0,1.86-1.09-3.26-4.37-8-8.87-13.87-6.45a14.85,14.85,0,0,0-6.78,6.45c-.68,1.21,1.18,2.3,1.86,1.09Z"/><path class="cls-2" d="M18,21.62a14.3,14.3,0,0,1,3.86-4.44c5.13-3.81,9.85.12,13.08,4.44.82,1.1,2.69,0,1.86-1.09-3.26-4.37-8-8.87-13.87-6.45a14.85,14.85,0,0,0-6.78,6.45c-.68,1.21,1.18,2.3,1.86,1.09Z"/></g></g></svg>