<svg xmlns="http://www.w3.org/2000/svg" xmlns:xlink="http://www.w3.org/1999/xlink" viewBox="0 0 78.94 66.41"><defs><style>.aae62a1b-7cd8-4c67-b7b8-d0e33378ad91,.ee1869ed-aa26-484b-8d7f-23d15229e2bd{stroke-miterlimit:10;}.aae62a1b-7cd8-4c67-b7b8-d0e33378ad91{fill:url(#a5f1c766-a387-459a-9819-f582204ac84d);stroke:url(#ae64a6f6-b251-4d6d-b802-d7e744b60c24);}.ee1869ed-aa26-484b-8d7f-23d15229e2bd{opacity:0.8;fill:url(#e868e88e-b0ea-4fba-8396-aa4e62a45a8b);stroke:url(#bd16879c-bfcb-4157-8428-df90cbe664f4);}.f5291c6f-0af7-4a64-a316-024d3994ad99{fill:#1a1617;}.a5cac780-67a9-4b4a-907c-1a549499f59a,.af5ef9f3-45fc-4193-9549-5ad53279bc22,.b40e7c5d-9053-493d-8524-8fa33bb89ea0,.b5b7825c-5253-4b00-a84d-be1c3bc4010a,.b830f493-c012-4b42-9966-3d4efe4328c5,.eb358d80-437f-453f-a6e0-550219dcf12d,.f5291c6f-0af7-4a64-a316-024d3994ad99{fill-rule:evenodd;}.eb358d80-437f-453f-a6e0-550219dcf12d{fill:#3d3d3d;}.b830f493-c012-4b42-9966-3d4efe4328c5{fill:#f6d5b8;}.b5b7825c-5253-4b00-a84d-be1c3bc4010a{fill:#e6c6aa;}.af5ef9f3-45fc-4193-9549-5ad53279bc22{fill:#383032;}.b40e7c5d-9053-493d-8524-8fa33bb89ea0{fill:#fff;}.a5cac780-67a9-4b4a-907c-1a549499f59a{fill:#e6e6e6;}</style><linearGradient id="a5f1c766-a387-459a-9819-f582204ac84d" x1="67.86" y1="31.1" x2="78.94" y2="31.1" gradientUnits="userSpaceOnUse"><stop offset="0" stop-color="#0071bc" stop-opacity="0.2"/><stop offset="0.1" stop-color="#357fb0" stop-opacity="0.27"/><stop offset="0.22" stop-color="#628ba6" stop-opacity="0.33"/><stop offset="0.37" stop-color="#82939e" stop-opacity="0.37"/><stop offset="0.56" stop-color="#94989a" stop-opacity="0.39"/><stop offset="1" stop-color="#999" stop-opacity="0.4"/></linearGradient><linearGradient id="ae64a6f6-b251-4d6d-b802-d7e744b60c24" x1="67.86" y1="31.1" x2="78.94" y2="31.1" gradientUnits="userSpaceOnUse"><stop offset="0.12" stop-color="#e6e6e6" stop-opacity="0.3"/><stop offset="0.52" stop-color="#939393" stop-opacity="0.4"/><stop offset="1" stop-color="#f2f2f2" stop-opacity="0.5"/></linearGradient><linearGradient id="e868e88e-b0ea-4fba-8396-aa4e62a45a8b" x1="34.3" y1="65.91" x2="34.3" y2="0.5" gradientUnits="userSpaceOnUse"><stop offset="0" stop-color="#0071bc" stop-opacity="0.1"/><stop offset="0.46" stop-color="#4182ad" stop-opacity="0.23"/><stop offset="1" stop-color="#999" stop-opacity="0.4"/></linearGradient><linearGradient id="bd16879c-bfcb-4157-8428-df90cbe664f4" y1="33.21" x2="68.59" y2="33.21" gradientUnits="userSpaceOnUse"><stop offset="0.12" stop-color="#e6e6e6" stop-opacity="0.3"/><stop offset="0.17" stop-color="#e7e7e7" stop-opacity="0.32"/><stop offset="0.23" stop-color="#e9e9e9" stop-opacity="0.37"/><stop offset="0.29" stop-color="#ececec" stop-opacity="0.47"/><stop offset="0.36" stop-color="#f0f0f0" stop-opacity="0.59"/><stop offset="0.43" stop-color="#f6f6f6" stop-opacity="0.76"/><stop offset="0.5" stop-color="#fdfdfd" stop-opacity="0.95"/><stop offset="0.52" stop-color="#fff"/><stop offset="0.53" stop-color="#fdfdfd" stop-opacity="0.94"/><stop offset="0.56" stop-color="#fafafa" stop-opacity="0.82"/><stop offset="0.59" stop-color="#f8f8f8" stop-opacity="0.72"/><stop offset="0.63" stop-color="#f6f6f6" stop-opacity="0.64"/><stop offset="0.67" stop-color="#f4f4f4" stop-opacity="0.58"/><stop offset="0.72" stop-color="#f3f3f3" stop-opacity="0.53"/><stop offset="0.8" stop-color="#f2f2f2" stop-opacity="0.51"/><stop offset="1" stop-color="#f2f2f2" stop-opacity="0.5"/></linearGradient></defs><title>profile woman (2)</title><g id="f1dcc565-20fe-4223-946a-f58204067fee" data-name="Layer 2"><g id="a0fd5c23-dd08-4c24-8a38-3da915f97e9c" data-name="Fetch"><g id="b657712e-a4cd-4123-b4b0-7c03c3c8c54d" data-name="profile woman"><line class="aae62a1b-7cd8-4c67-b7b8-d0e33378ad91" x1="67.86" y1="31.1" x2="78.94" y2="31.1"/><g id="a4d9848f-12c5-4448-a387-04d663db7c6f" data-name="Profile man"><ellipse class="ee1869ed-aa26-484b-8d7f-23d15229e2bd" cx="34.3" cy="33.21" rx="33.8" ry="32.71"/><path class="f5291c6f-0af7-4a64-a316-024d3994ad99" d="M48,20.45a4.72,4.72,0,0,1,0,3.52c-.49,1.79-1.69,3.08-2.88,3.2a14.74,14.74,0,0,1-3.37,6.61,19.18,19.18,0,0,1,5,5.27A91.13,91.13,0,0,1,56,42.79c.77.32.62.21,1,1,1.4,3,2.4,6.12,3.63,9.17A34.07,34.07,0,0,1,34.31,65,34.05,34.05,0,0,1,8,52.87c1.42-2.82,2.26-6.2,3.76-9.16.41-.8.27-.68,1.13-1a94.07,94.07,0,0,1,8.9-3.49A14.8,14.8,0,0,1,27.18,34a14.58,14.58,0,0,1-3.51-6.77c-1.26,0-2.59-1.3-3.11-3.21a4.77,4.77,0,0,1,0-3.52,1.33,1.33,0,0,1,.85-.67c-1.84-6.14.34-10.4,5-13C33,2.18,41.31,2.59,46.33,9.06,48.68,12.1,49.07,16.6,48,20.45Z"/><path class="eb358d80-437f-453f-a6e0-550219dcf12d" d="M34.17,3.8a16.37,16.37,0,0,0-7.72,3c-4.67,2.56-6.85,6.82-5,13a2.06,2.06,0,0,1,1.92,1.15,1.12,1.12,0,0,1,.14.59,12,12,0,0,0,.34,2.36c.06.24.54.5.48.13-.23-1.34-.05-2.92-.29-4.19l-.22-1.13a14.1,14.1,0,0,1,4.55-7.31,11.46,11.46,0,0,0,7.1,3.85c5.1.51,8,2.06,9.55,4.59-.24,1.27-.07,2.85-.29,4.19-.06.37.42.11.48-.13a12.09,12.09,0,0,0,.17-2.36,1,1,0,0,1,.08-.86c.58-.88,1.87-1.4,2.58-.21,1-3.85.65-8.35-1.7-11.39A13.26,13.26,0,0,0,37.18,3.8Z"/><path class="b830f493-c012-4b42-9966-3d4efe4328c5" d="M21,20a1.76,1.76,0,0,0-.39.45,4.77,4.77,0,0,0,0,3.52,4.89,4.89,0,0,0,1.92,2.85,2.15,2.15,0,0,0,1.19.36A14.58,14.58,0,0,0,27.18,34a20.64,20.64,0,0,0-.57,2c2.21,3.19,4.86,5,7.7,5s5.76-2,8-5.55a14.06,14.06,0,0,0-.54-1.72,14.74,14.74,0,0,0,3.37-6.61,2.33,2.33,0,0,0,1-.35A4.88,4.88,0,0,0,48.06,24a4.72,4.72,0,0,0,0-3.52,1.76,1.76,0,0,0-.39-.45,1.56,1.56,0,0,0-2.19.66,1,1,0,0,0-.08.86,12.09,12.09,0,0,1-.17,2.36c-.06.24-.54.5-.48.13.22-1.34.05-2.92.29-4.19-1.52-2.53-4.45-4.08-9.55-4.59a11.46,11.46,0,0,1-7.1-3.85,14.1,14.1,0,0,0-4.55,7.31L24,19.82c.24,1.27.06,2.85.29,4.19.06.37-.42.11-.48-.13a12,12,0,0,1-.34-2.36,1.12,1.12,0,0,0-.14-.59,2.06,2.06,0,0,0-1.92-1.15A1,1,0,0,0,21,20Z"/><path class="b5b7825c-5253-4b00-a84d-be1c3bc4010a" d="M23.57,26.56a15.56,15.56,0,0,1-.41-3.18,17.8,17.8,0,0,1,.07-2.06L23,21.09a1.54,1.54,0,0,0-1.06-.5.79.79,0,0,0-.6.43c-.49.81-.16,2.17.1,3a4.63,4.63,0,0,0,1.22,2A2.83,2.83,0,0,0,23.57,26.56Zm21.64,0a15.55,15.55,0,0,0,.4-3.18,14.24,14.24,0,0,0-.07-2.06l.19-.23a1.56,1.56,0,0,1,1.06-.5.82.82,0,0,1,.61.43c.48.81.16,2.17-.11,3a4.54,4.54,0,0,1-1.22,2A2.78,2.78,0,0,1,45.21,26.56Z"/><path class="af5ef9f3-45fc-4193-9549-5ad53279bc22" d="M27.18,34C23,44.9,31.92,55.15,34,65l-1,0L19.5,49.17l3.84-2.81c-.84-1.09-2.4-1.61-3.09-2.73.65-1.43.6-3.05,1.53-4.41A14.8,14.8,0,0,1,27.18,34Zm15.35.35a18.29,18.29,0,0,1,4.32,4.72l.47.14,0,0c.92,1.36.87,3,1.52,4.41-.69,1.12-2.25,1.64-3.09,2.73l3.84,2.81L36.18,64.9q-.51,0-1,0c2-9.79,10.94-20,6.77-31C42.13,34.09,42.33,34.2,42.53,34.33Z"/><path class="b5b7825c-5253-4b00-a84d-be1c3bc4010a" d="M41.81,33.78a11,11,0,0,1-7.36,3.1c-3.1,0-7.25-2.92-7.25-2.91l-.13.51a10.32,10.32,0,0,0,2.65,2.08,14.14,14.14,0,0,0,4.84,1.58,27.89,27.89,0,0,0,5.47.24,16.48,16.48,0,0,0,2.32-2.88A14.67,14.67,0,0,0,41.81,33.78Z"/><path class="b40e7c5d-9053-493d-8524-8fa33bb89ea0" d="M34.31,41.05c-2.84,0-5.49-1.86-7.7-5a20.64,20.64,0,0,1,.57-2c-2.7,7.07.08,13.85,2.93,20.42A56.56,56.56,0,0,1,34,65h.35l.84,0a52.12,52.12,0,0,1,3.5-9.75c3-6.82,6.09-13.87,3.28-21.23l.44.25-.56-.42a14.06,14.06,0,0,1,.54,1.72A16.48,16.48,0,0,1,40,38.38,8.19,8.19,0,0,1,34.31,41.05Z"/><path class="a5cac780-67a9-4b4a-907c-1a549499f59a" d="M34.35,41.76l-5.56,7-2.36-5.11a50,50,0,0,0,3.71,10.75L32,48.67l-1.2-1.61Zm5.59,7.13-5.59-7.13,3.47,5-1.2,2a62.37,62.37,0,0,1,2,6.41c1.68-3.85,3.4-7.79,4.08-11.8Z"/><path class="b5b7825c-5253-4b00-a84d-be1c3bc4010a" d="M35.46,15.23a11.46,11.46,0,0,1-7.1-3.85,14.1,14.1,0,0,0-4.55,7.31c1.51-2.16,2.48-4.93,4.52-6.47,2.75,5.27,12.36,3.33,16.68,7.6C43.49,17.29,40.56,15.74,35.46,15.23Z"/></g></g></g></g></svg>