<svg xmlns="http://www.w3.org/2000/svg" xmlns:xlink="http://www.w3.org/1999/xlink" viewBox="0 0 78.27 65.01"><defs><style>.b4ebe0ed-3fe6-45ae-b7f4-4cab8509ad91,.b831548a-4b12-4171-b809-8cc388a88fd7{stroke-miterlimit:10;}.b831548a-4b12-4171-b809-8cc388a88fd7{opacity:0.8;fill:url(#b7242e8b-a142-4536-bc62-4c97f9b8fb81);stroke:url(#f645ea18-5fa3-4e4b-b157-98d0d310df3d);}.b285884b-35ca-4592-940b-095cea4ed775{fill:#1a1617;}.a2de334a-bb95-41a8-8561-91e36b3a3274,.a8b7790f-5439-41f9-bca4-7f918a91e394,.add0764a-c573-45d9-810d-6418c54f3db5,.b285884b-35ca-4592-940b-095cea4ed775,.f3ac726a-02c3-4b8f-87e1-1ab39907fd17,.f77fe487-6ec3-40dd-a0b5-52eedc9c0632{fill-rule:evenodd;}.add0764a-c573-45d9-810d-6418c54f3db5{fill:#210d02;}.f3ac726a-02c3-4b8f-87e1-1ab39907fd17{fill:#594238;}.a2de334a-bb95-41a8-8561-91e36b3a3274{fill:#281b12;opacity:0.25;}.a8b7790f-5439-41f9-bca4-7f918a91e394{fill:#383032;}.f77fe487-6ec3-40dd-a0b5-52eedc9c0632{fill:#fff;}.b4ebe0ed-3fe6-45ae-b7f4-4cab8509ad91{fill:url(#b4f9bf94-0bc8-414f-87a5-28b321779bd3);stroke:url(#a7ac622a-ad20-4b5b-9291-c906abc4a401);}</style><linearGradient id="b7242e8b-a142-4536-bc62-4c97f9b8fb81" x1="33.57" y1="64.51" x2="33.57" y2="0.5" gradientUnits="userSpaceOnUse"><stop offset="0" stop-color="#0071bc" stop-opacity="0.1"/><stop offset="0.46" stop-color="#4182ad" stop-opacity="0.23"/><stop offset="1" stop-color="#999" stop-opacity="0.4"/></linearGradient><linearGradient id="f645ea18-5fa3-4e4b-b157-98d0d310df3d" y1="32.5" x2="67.14" y2="32.5" gradientUnits="userSpaceOnUse"><stop offset="0.12" stop-color="#e6e6e6" stop-opacity="0.3"/><stop offset="0.17" stop-color="#e7e7e7" stop-opacity="0.32"/><stop offset="0.23" stop-color="#e9e9e9" stop-opacity="0.37"/><stop offset="0.29" stop-color="#ececec" stop-opacity="0.47"/><stop offset="0.36" stop-color="#f0f0f0" stop-opacity="0.59"/><stop offset="0.43" stop-color="#f6f6f6" stop-opacity="0.76"/><stop offset="0.5" stop-color="#fdfdfd" stop-opacity="0.95"/><stop offset="0.52" stop-color="#fff"/><stop offset="0.53" stop-color="#fdfdfd" stop-opacity="0.94"/><stop offset="0.56" stop-color="#fafafa" stop-opacity="0.82"/><stop offset="0.59" stop-color="#f8f8f8" stop-opacity="0.72"/><stop offset="0.63" stop-color="#f6f6f6" stop-opacity="0.64"/><stop offset="0.67" stop-color="#f4f4f4" stop-opacity="0.58"/><stop offset="0.72" stop-color="#f3f3f3" stop-opacity="0.53"/><stop offset="0.8" stop-color="#f2f2f2" stop-opacity="0.51"/><stop offset="1" stop-color="#f2f2f2" stop-opacity="0.5"/></linearGradient><linearGradient id="b4f9bf94-0bc8-414f-87a5-28b321779bd3" x1="67.19" y1="32.17" x2="78.27" y2="32.17" gradientUnits="userSpaceOnUse"><stop offset="0" stop-color="#0071bc" stop-opacity="0.2"/><stop offset="0.1" stop-color="#357fb0" stop-opacity="0.27"/><stop offset="0.22" stop-color="#628ba6" stop-opacity="0.33"/><stop offset="0.37" stop-color="#82939e" stop-opacity="0.37"/><stop offset="0.56" stop-color="#94989a" stop-opacity="0.39"/><stop offset="1" stop-color="#999" stop-opacity="0.4"/></linearGradient><linearGradient id="a7ac622a-ad20-4b5b-9291-c906abc4a401" x1="67.19" y1="32.17" x2="78.27" y2="32.17" gradientUnits="userSpaceOnUse"><stop offset="0.12" stop-color="#e6e6e6" stop-opacity="0.3"/><stop offset="0.52" stop-color="#939393" stop-opacity="0.4"/><stop offset="1" stop-color="#f2f2f2" stop-opacity="0.5"/></linearGradient></defs><title>profile woman (3)</title><g id="a93be542-0950-4652-a5b3-d9779d322359" data-name="Layer 2"><g id="ff6f36cb-a821-4008-b4d8-42237634264f" data-name="Fetch"><g id="f757b731-8985-42cc-8286-4d18b18b63e8" data-name="profile woman"><ellipse class="b831548a-4b12-4171-b809-8cc388a88fd7" cx="33.57" cy="32.5" rx="33.07" ry="32"/><path class="b285884b-35ca-4592-940b-095cea4ed775" d="M23.35,37.76a2.9,2.9,0,0,1-.72.27,59.88,59.88,0,0,0-6.79,2.74c-1.43.67-1.29.42-1.9,1.81a99.87,99.87,0,0,0-4.2,10.89A32.59,32.59,0,0,0,23.54,62c2,.53,4.09,1,6.22,1.31a33.36,33.36,0,0,0,3.49.22H34c1.15,0,2.28-.09,3.4-.22C39.5,63,41.59,62.53,43.6,62a32.65,32.65,0,0,0,13.8-8.53,102,102,0,0,0-4.2-10.89c-.61-1.39-.48-1.14-1.9-1.81A60.64,60.64,0,0,0,44.51,38c-.31-.1-.48-.15-.6-.2l0-.07a11.8,11.8,0,0,0-1.53-2c2.77.19,5-.48,6.42-2.13s1.44-2.79,1.51-4.73A38.32,38.32,0,0,0,49,17.17a21,21,0,0,0-5.7-9.84c-2.73-2.55-5.92-4.55-9.77-4.55-2.72,0-5.07.48-6.74,3-1.63-.2-2.53.5-3.62,1.52a21,21,0,0,0-5.69,9.84,38,38,0,0,0-1.25,11.71c.07,1.94.14,3.13,1.51,4.73,1.51,1.77,4,2.4,7,2.08h0A11.38,11.38,0,0,0,23.35,37.76Z"/><path class="add0764a-c573-45d9-810d-6418c54f3db5" d="M24.79,35.7A12.7,12.7,0,0,1,26.89,34l.41-1.87a14,14,0,0,1-3.06-6.27c-1.09,0-2.24-1.2-2.69-3a4.65,4.65,0,0,1,0-3.25c.69-1.22,1.92-.46,2.4.44a13.85,13.85,0,0,1,4.35-8.81,9.8,9.8,0,0,0,6.15,3.55c4.89.53,7.48,2.21,8.66,5,.56-.78,1.62-1.29,2.25-.19a4.7,4.7,0,0,1,0,3.25c-.42,1.65-1.46,2.84-2.49,2.95A14.11,14.11,0,0,1,40,31.92l0,.17.44,2a8.09,8.09,0,0,1,1.93,1.69c2.78.19,5-.47,6.45-2.13s1.44-2.79,1.51-4.73A38.42,38.42,0,0,0,49,17.17a21,21,0,0,0-5.7-9.83c-2.73-2.54-5.92-4.55-9.77-4.55-2.72,0-5.07.48-6.74,3-1.63-.21-2.53.5-3.62,1.52a21,21,0,0,0-5.69,9.83,38.12,38.12,0,0,0-1.25,11.72c.07,1.94.14,3.13,1.51,4.73C19.29,35.39,21.76,36,24.79,35.7Z"/><path class="f3ac726a-02c3-4b8f-87e1-1ab39907fd17" d="M43.13,19.8c.56-.78,1.62-1.29,2.25-.19a4.7,4.7,0,0,1,0,3.25c-.42,1.65-1.46,2.84-2.49,2.95A14.11,14.11,0,0,1,40,31.92l0,.17L40.38,34h0c0,.11.07.21.1.32l0,.06c.14.51.28,1.06.4,1.63.84,4.65-.88,9-2.9,13.5a6.15,6.15,0,0,1-4.33,2,6.2,6.2,0,0,1-4.39-2.05c-1.88-4.19-3.49-8.25-3-12.55a22.43,22.43,0,0,1,.57-2.52l.09-.38.41-1.87a14,14,0,0,1-3.06-6.27c-1.09,0-2.24-1.2-2.69-3a4.65,4.65,0,0,1,0-3.25c.69-1.22,1.92-.46,2.4.44a13.85,13.85,0,0,1,4.35-8.81,9.8,9.8,0,0,0,6.15,3.55C39.36,15.32,42,17,43.13,19.8Z"/><path class="a2de334a-bb95-41a8-8561-91e36b3a3274" d="M24.15,25.43a15.65,15.65,0,0,1-.28-4.84c-.06-.07-.11-.14-.18-.21a1.37,1.37,0,0,0-.91-.47.69.69,0,0,0-.52.41,4,4,0,0,0,.08,2.76,4.34,4.34,0,0,0,1.06,1.83A2.51,2.51,0,0,0,24.15,25.43Zm18.77,0a14.58,14.58,0,0,0,.36-2.93,15.25,15.25,0,0,0-.07-1.91c.06-.07.11-.14.18-.21a1.37,1.37,0,0,1,.91-.47.73.73,0,0,1,.53.41,4,4,0,0,1-.09,2.76,4.34,4.34,0,0,1-1.06,1.83A2.33,2.33,0,0,1,42.92,25.43Z"/><path class="a2de334a-bb95-41a8-8561-91e36b3a3274" d="M40.38,34,40,32.09l0-.17a8.47,8.47,0,0,1-6.41,3.22,8.43,8.43,0,0,1-6.27-3l-.12.53a9.5,9.5,0,0,0,2.41,2.22,11.18,11.18,0,0,0,4.08,1.51,22,22,0,0,0,5,.21c.46,0,.38-.11.51.33,1.46,5.55-1,14.61-9.87,12.58a6.13,6.13,0,0,0,4.33,2,6.15,6.15,0,0,0,4.33-2C40.15,44.59,42.19,39.3,40.38,34Z"/><path class="a2de334a-bb95-41a8-8561-91e36b3a3274" d="M43.13,19.8c-1.18-2.8-3.77-4.48-8.66-5a9.8,9.8,0,0,1-6.15-3.55A13.85,13.85,0,0,0,24,20.05c1.31-2.61,2.34-5.61,4.28-7.45C30.77,18.36,39.33,14.75,43.13,19.8Z"/><path class="a8b7790f-5439-41f9-bca4-7f918a91e394" d="M43.88,37.76a15.62,15.62,0,0,1,.77,2,13,13,0,0,1,.44,2.08,2,2,0,0,1,0,.41.6.6,0,0,1-.16.36,5.59,5.59,0,0,1-.82,1,8.37,8.37,0,0,1-1.07.82l1.43,1.49L46,47.31l-6.17,7.62-6.17,7.63-6.18-7.63-6.17-7.62,1.44-1.48,1.43-1.49a8.49,8.49,0,0,1-1.08-.82,6.07,6.07,0,0,1-.82-1,.64.64,0,0,1-.15-.36,2,2,0,0,1,.05-.41,13,13,0,0,1,.44-2.08,15.62,15.62,0,0,1,.77-2,11.42,11.42,0,0,1,1.54-2.14,9.16,9.16,0,0,1,2-1.66c-1.59,4.64-.4,8.94,1.42,13.31s4.3,8.83,5.31,13.79c1-5,3.48-9.41,5.32-13.78S42,38.6,40.38,34a14,14,0,0,1,2,1.77A11.49,11.49,0,0,1,43.88,37.76Z"/><path class="f77fe487-6ec3-40dd-a0b5-52eedc9c0632" d="M33.62,61.06c.83-4.13,2.68-7.91,4.34-11.59a6.15,6.15,0,0,1-4.33,2,6.13,6.13,0,0,1-4.33-2l-.06-.06C30.9,53.11,32.77,56.91,33.62,61.06Z"/><line class="b4ebe0ed-3fe6-45ae-b7f4-4cab8509ad91" x1="67.19" y1="32.17" x2="78.27" y2="32.17"/></g></g></g></svg>