<svg xmlns="http://www.w3.org/2000/svg" xmlns:xlink="http://www.w3.org/1999/xlink" viewBox="0 0 80.77 77.44"><defs><style>.cls-1{fill:url(#linear-gradient);}.cls-2{fill:none;}.cls-3{clip-path:url(#clip-path);}.cls-4{mask:url(#mask);}.cls-5{fill:url(#linear-gradient-2);}.cls-6{clip-path:url(#clip-path-2);}.cls-7{fill:url(#linear-gradient-3);}.cls-8{clip-path:url(#clip-path-3);}.cls-9{fill:url(#linear-gradient-4);}.cls-10{clip-path:url(#clip-path-4);}.cls-11{fill:url(#linear-gradient-5);}.cls-12{clip-path:url(#clip-path-5);}.cls-13{fill:url(#linear-gradient-6);}.cls-14{clip-path:url(#clip-path-6);}.cls-15{fill:url(#linear-gradient-7);}.cls-16{clip-path:url(#clip-path-7);}.cls-17{fill:url(#linear-gradient-8);}.cls-18{fill:#29abe2;}</style><linearGradient id="linear-gradient" x1="-1732.08" y1="761.54" x2="-1731.08" y2="761.54" gradientTransform="matrix(0, 77.44, 77.44, 0, -58933.39, 134131.99)" gradientUnits="userSpaceOnUse"><stop offset="0" stop-color="#333"/><stop offset="1" stop-color="#333"/></linearGradient><clipPath id="clip-path" transform="translate(0 0)"><rect class="cls-2" width="80.77" height="77.44"/></clipPath><mask id="mask" x="0" y="0" width="80.77" height="77.44" maskUnits="userSpaceOnUse"><g transform="translate(0 0)"><rect class="cls-1" width="80.77" height="77.44"/></g></mask><linearGradient id="linear-gradient-2" x1="-1732.08" y1="761.54" x2="-1731.08" y2="761.54" gradientTransform="matrix(0, 77.44, 77.44, 0, -58933.39, 134131.99)" gradientUnits="userSpaceOnUse"><stop offset="0" stop-color="#f2f2f2"/><stop offset="0.16" stop-color="#d2e1eb"/><stop offset="0.5" stop-color="#7fb5d8"/><stop offset="1" stop-color="#0071bc"/></linearGradient><clipPath id="clip-path-2" transform="translate(0 0)"><rect class="cls-2" x="38.86" y="8.05" width="0.32" height="61.02"/></clipPath><linearGradient id="linear-gradient-3" x1="-1714.04" y1="785.85" x2="-1713.04" y2="785.85" gradientTransform="matrix(0.32, 0, 0, -0.32, 589.21, 290.88)" gradientUnits="userSpaceOnUse"><stop offset="0" stop-color="#999"/><stop offset="0.01" stop-color="#999"/><stop offset="1" stop-color="#ccc"/></linearGradient><clipPath id="clip-path-3" transform="translate(0 0)"><rect class="cls-2" x="7.21" y="38.4" width="63.64" height="0.31"/></clipPath><linearGradient id="linear-gradient-4" x1="-1731.88" y1="761.59" x2="-1730.88" y2="761.59" gradientTransform="matrix(63.64, 0, 0, -63.64, 110221.91, 48505.08)" xlink:href="#linear-gradient-3"/><clipPath id="clip-path-4" transform="translate(0 0)"><polygon class="cls-2" points="3.37 4.37 3.37 17.52 3.69 17.52 3.69 4.68 17.08 4.68 17.08 4.37 3.37 4.37"/></clipPath><linearGradient id="linear-gradient-5" x1="-1731.55" y1="762.04" x2="-1730.55" y2="762.04" gradientTransform="matrix(13.71, 0, 0, -13.71, 23742.34, 10458.2)" xlink:href="#linear-gradient-3"/><clipPath id="clip-path-5" transform="translate(0 0)"><polygon class="cls-2" points="60.97 4.37 60.97 4.68 74.36 4.68 74.36 17.52 74.68 17.52 74.68 4.37 60.97 4.37"/></clipPath><linearGradient id="linear-gradient-6" x1="-1731.55" y1="762.04" x2="-1730.55" y2="762.04" gradientTransform="matrix(13.71, 0, 0, -13.71, 23800.22, 10458.33)" xlink:href="#linear-gradient-3"/><clipPath id="clip-path-6" transform="translate(0 0)"><polygon class="cls-2" points="3.37 59.6 3.37 72.74 17.08 72.74 17.08 72.44 3.69 72.44 3.69 59.6 3.37 59.6"/></clipPath><linearGradient id="linear-gradient-7" x1="-1731.55" y1="762.04" x2="-1730.55" y2="762.04" gradientTransform="matrix(13.71, 0, 0, -13.71, 23742.34, 10513.43)" xlink:href="#linear-gradient-3"/><clipPath id="clip-path-7" transform="translate(0 0)"><polygon class="cls-2" points="74.36 59.6 74.36 72.44 60.97 72.44 60.97 72.74 74.68 72.74 74.68 59.6 74.36 59.6"/></clipPath><linearGradient id="linear-gradient-8" x1="-1731.55" y1="762.04" x2="-1730.55" y2="762.04" gradientTransform="matrix(13.71, 0, 0, -13.71, 23800.22, 10513.55)" xlink:href="#linear-gradient-3"/></defs><title>Asset 9aim icon</title><g id="Layer_2" data-name="Layer 2"><g id="Layer_1-2" data-name="Layer 1"><g class="cls-3"><g class="cls-4"><rect class="cls-5" width="80.77" height="77.44"/></g></g><g class="cls-6"><rect class="cls-7" x="38.86" y="8.05" width="0.32" height="61.02"/></g><g class="cls-8"><rect class="cls-9" x="7.21" y="38.4" width="63.64" height="0.31"/></g><g class="cls-10"><rect class="cls-11" x="3.37" y="4.37" width="13.71" height="13.14"/></g><g class="cls-12"><rect class="cls-13" x="60.97" y="4.37" width="13.71" height="13.14"/></g><g class="cls-14"><rect class="cls-15" x="3.37" y="59.6" width="13.71" height="13.15"/></g><g class="cls-16"><rect class="cls-17" x="60.97" y="59.6" width="13.71" height="13.15"/></g><path class="cls-18" d="M38.86,61.77c-13.44,0-24.37-10.48-24.37-23.37S25.43,15,38.86,15,63.23,25.52,63.23,38.4,52.3,61.77,38.86,61.77m0-46.42c-13.26,0-24.05,10.34-24.05,23.06S25.6,61.46,38.86,61.46s24-10.34,24-23.06-10.79-23.06-24-23.06" transform="translate(0 0)"/><path class="cls-18" d="M38.86,54.32c-9.15,0-16.6-7.14-16.6-15.92s7.45-15.92,16.6-15.92,16.6,7.14,16.6,15.92S48,54.32,38.86,54.32m0-31.52c-9,0-16.28,7-16.28,15.61S29.89,54,38.86,54,55.14,47,55.14,38.4,47.84,22.8,38.86,22.8" transform="translate(0 0)"/></g></g></svg>