<svg xmlns="http://www.w3.org/2000/svg" xmlns:xlink="http://www.w3.org/1999/xlink" viewBox="0 0 62 69.45"><defs><style>.cls-1{fill:url(#linear-gradient);}.cls-2{fill:none;}.cls-3{fill:url(#linear-gradient-2);}.cls-4{clip-path:url(#clip-path);}.cls-5{mask:url(#mask);}.cls-6{fill:url(#linear-gradient-3);}</style><linearGradient id="linear-gradient" x1="-74.64" y1="150.71" x2="-73.64" y2="150.71" gradientTransform="matrix(48.5, 0, 0, -48.5, 3626.65, 7343.93)" gradientUnits="userSpaceOnUse"><stop offset="0" stop-color="#4d4d4d"/><stop offset="0.51" stop-color="#fff"/><stop offset="1" stop-color="gray"/></linearGradient><linearGradient id="linear-gradient-2" x1="-80.41" y1="150.08" x2="-79.41" y2="150.08" gradientTransform="matrix(0, -69.45, -69.45, 0, 10454.43, -5515.03)" gradientUnits="userSpaceOnUse"><stop offset="0" stop-color="#184874"/><stop offset="0.14" stop-color="#133a5d"/><stop offset="0.36" stop-color="#0e2840"/><stop offset="0.58" stop-color="#091b2b"/><stop offset="0.8" stop-color="#07141e"/><stop offset="1" stop-color="#06111a"/></linearGradient><clipPath id="clip-path"><path class="cls-2" d="M27.8,40.17a6.34,6.34,0,0,1,1.55-11.6,6.18,6.18,0,0,1,1.65-.2,6.35,6.35,0,0,1,6.1,4.7,6.35,6.35,0,0,1-4.5,7.75A6.9,6.9,0,0,1,31,41a6.22,6.22,0,0,1-3.17-.85m.8-14.45a9.33,9.33,0,0,0-2.25,17.1A9.15,9.15,0,0,0,31,44.07a10.6,10.6,0,0,0,2.45-.3,9.38,9.38,0,0,0,6.6-11.45,9.42,9.42,0,0,0-9-6.92,9.17,9.17,0,0,0-2.41.32M17.85,27a15.11,15.11,0,0,1,5.4-5.4,1.55,1.55,0,0,0,.7-1.7l-1.2-4.55,5.85-1.6,1.2,4.55a1.54,1.54,0,0,0,1.45,1.1,15.34,15.34,0,0,1,7.4,2,1.45,1.45,0,0,0,1.8-.25l3.3-3.3L48,22l-3.3,3.3a1.45,1.45,0,0,0-.25,1.8,18.66,18.66,0,0,1,1.45,3.6,16.54,16.54,0,0,1,.5,3.85A1.46,1.46,0,0,0,47.45,36L52,37.22,50.45,43l-4.55-1.2a1.55,1.55,0,0,0-1.7.7,15.11,15.11,0,0,1-5.4,5.4,1.55,1.55,0,0,0-.7,1.7l1.2,4.55-5.75,1.55-1.2-4.55A1.54,1.54,0,0,0,30.9,50a15.32,15.32,0,0,1-7.4-2,1.48,1.48,0,0,0-1.85.3l-3.35,3.3-4.2-4.2,3.3-3.3a1.45,1.45,0,0,0,.25-1.8,18.66,18.66,0,0,1-1.45-3.6,16.6,16.6,0,0,1-.5-3.85,1.46,1.46,0,0,0-1.1-1.45l-4.55-1.2,1.55-5.75,4.55,1.2a1.64,1.64,0,0,0,.37,0A1.51,1.51,0,0,0,17.85,27m11.3-16.45-8.65,2.3a1.54,1.54,0,0,0-1.05,1.85l1.3,4.9a17.6,17.6,0,0,0-4.9,4.9L11,23.17a1.54,1.54,0,0,0-1.15.15,1.42,1.42,0,0,0-.7.9L6.8,32.87A1.53,1.53,0,0,0,7,34a1.41,1.41,0,0,0,.9.7l4.9,1.3a20.88,20.88,0,0,0,.6,3.45,19.56,19.56,0,0,0,1.2,3.25L11,46.32a1.45,1.45,0,0,0,0,2.1l6.4,6.35a1.45,1.45,0,0,0,2.1,0l3.6-3.6a18.56,18.56,0,0,0,6.7,1.8l1.3,4.9A1.54,1.54,0,0,0,32.5,59a.84.84,0,0,0,.35-.05l8.65-2.3a1.54,1.54,0,0,0,1-1.85l-1.3-4.9a17.6,17.6,0,0,0,4.9-4.9l4.9,1.3a1.53,1.53,0,0,0,1.15-.15,1.41,1.41,0,0,0,.7-.9l2.3-8.65a1.51,1.51,0,0,0-1-1.85l-4.9-1.3a20.66,20.66,0,0,0-.6-3.45,19.62,19.62,0,0,0-1.2-3.25l3.6-3.6a1.45,1.45,0,0,0,0-2.1L44.7,14.67a1.54,1.54,0,0,0-2.1,0L39,18.27a18.53,18.53,0,0,0-6.7-1.8L31,11.57a1.54,1.54,0,0,0-1.47-1.1,1.56,1.56,0,0,0-.38,0"/></clipPath><mask id="mask" x="6.7" y="10.48" width="48.7" height="48.5" maskUnits="userSpaceOnUse"><rect class="cls-1" x="6.7" y="10.48" width="48.7" height="48.5"/></mask><linearGradient id="linear-gradient-3" x1="-74.64" y1="150.71" x2="-73.64" y2="150.71" gradientTransform="matrix(48.5, 0, 0, -48.5, 3626.65, 7343.93)" gradientUnits="userSpaceOnUse"><stop offset="0" stop-color="#999"/><stop offset="0.51" stop-color="#fff"/><stop offset="1" stop-color="#b3b3b3"/></linearGradient></defs><title>Asset 7settings icon</title><g id="Layer_2" data-name="Layer 2"><g id="Layer_1-2" data-name="Layer 1"><rect class="cls-3" width="62" height="69.45" rx="8.87" ry="8.87"/><g class="cls-4"><g class="cls-5"><rect class="cls-6" x="6.7" y="10.48" width="48.7" height="48.5"/></g></g></g></g></svg>