<svg xmlns="http://www.w3.org/2000/svg" xmlns:xlink="http://www.w3.org/1999/xlink" viewBox="0 0 62 69.45"><defs><style>.cls-1{fill:url(#linear-gradient);}.cls-2{fill:url(#linear-gradient-2);}.cls-3{fill:url(#linear-gradient-3);}.cls-4{fill:url(#linear-gradient-4);}.cls-5{fill:url(#linear-gradient-5);}.cls-6{fill:none;}.cls-7{fill:url(#linear-gradient-6);}.cls-8{clip-path:url(#clip-path);}.cls-9{mask:url(#mask);}.cls-10{fill:url(#linear-gradient-7);}.cls-11{clip-path:url(#clip-path-2);}.cls-12{mask:url(#mask-2);}.cls-13{fill:url(#linear-gradient-8);}.cls-14{clip-path:url(#clip-path-3);}.cls-15{mask:url(#mask-3);}.cls-16{fill:url(#linear-gradient-9);}.cls-17{clip-path:url(#clip-path-4);}.cls-18{mask:url(#mask-4);}.cls-19{fill:url(#linear-gradient-10);}.cls-20{clip-path:url(#clip-path-5);}.cls-21{mask:url(#mask-5);}.cls-22{fill:url(#linear-gradient-11);}</style><linearGradient id="linear-gradient" x1="-74.38" y1="320.71" x2="-73.38" y2="320.71" gradientTransform="matrix(45.18, 0, 0, -45.18, 3368.8, 14524.32)" gradientUnits="userSpaceOnUse"><stop offset="0" stop-color="#4d4d4d"/><stop offset="0.51" stop-color="#fff"/><stop offset="1" stop-color="gray"/></linearGradient><linearGradient id="linear-gradient-2" x1="-73.4" y1="320.76" x2="-72.4" y2="320.76" gradientTransform="matrix(22.97, 0, 0, -22.97, 1705.55, 7411.7)" xlink:href="#linear-gradient"/><linearGradient id="linear-gradient-3" x1="-73.4" y1="320.76" x2="-72.4" y2="320.76" gradientTransform="matrix(22.97, 0, 0, -22.97, 1705.55, 7404.06)" xlink:href="#linear-gradient"/><linearGradient id="linear-gradient-4" x1="-73.4" y1="320.76" x2="-72.4" y2="320.76" gradientTransform="matrix(22.97, 0, 0, -22.97, 1705.55, 7396.41)" xlink:href="#linear-gradient"/><linearGradient id="linear-gradient-5" x1="-73.4" y1="320.76" x2="-72.4" y2="320.76" gradientTransform="matrix(22.97, 0, 0, -22.97, 1705.55, 7418.61)" xlink:href="#linear-gradient"/><linearGradient id="linear-gradient-6" x1="-77.76" y1="319.99" x2="-76.76" y2="319.99" gradientTransform="matrix(0, -69.45, -69.45, 0, 22254.62, -5331.17)" gradientUnits="userSpaceOnUse"><stop offset="0" stop-color="#184874"/><stop offset="0.14" stop-color="#133a5d"/><stop offset="0.36" stop-color="#0e2840"/><stop offset="0.58" stop-color="#091b2b"/><stop offset="0.8" stop-color="#07141e"/><stop offset="1" stop-color="#06111a"/></linearGradient><clipPath id="clip-path"><path class="cls-6" d="M20.55,13.8V10.41a.94.94,0,0,1,1-.91h19a1,1,0,0,1,1,.91V13.8a1,1,0,0,1-1,.91H35.77a.81.81,0,0,0-.83.78,2.92,2.92,0,0,1-3,2.82H30.07a2.92,2.92,0,0,1-3-2.82.81.81,0,0,0-.83-.78H21.51a.94.94,0,0,1-1-.91m1-5.87a2.57,2.57,0,0,0-2.64,2.48v0H11.75a3.25,3.25,0,0,0-3.34,3.13V45.09a.81.81,0,0,0,.84.78.81.81,0,0,0,.83-.78V13.57A1.62,1.62,0,0,1,11.75,12h2V56.15a.81.81,0,0,0,.84.78H47.44a.81.81,0,0,0,.84-.78V12h2a1.62,1.62,0,0,1,1.66,1.56V58.39A1.62,1.62,0,0,1,50.26,60H11.75a1.62,1.62,0,0,1-1.67-1.56v-9.6A.81.81,0,0,0,9.25,48a.82.82,0,0,0-.84.79v9.6a3.24,3.24,0,0,0,3.34,3.13H50.26a3.24,3.24,0,0,0,3.33-3.13V13.57a3.25,3.25,0,0,0-3.33-3.13H46.09a.79.79,0,1,0,0,1.57h.52V55.36H15.4V12h3.47V13.8a2.58,2.58,0,0,0,2.64,2.48h4a4.61,4.61,0,0,0,4.6,3.6h1.86a4.61,4.61,0,0,0,4.6-3.6h4a2.58,2.58,0,0,0,2.64-2.48V10.41a2.57,2.57,0,0,0-2.64-2.48Z"/></clipPath><mask id="mask" x="8.41" y="7.93" width="45.18" height="53.59" maskUnits="userSpaceOnUse"><rect class="cls-1" x="8.41" y="7.93" width="45.18" height="53.59"/></mask><linearGradient id="linear-gradient-7" x1="-74.38" y1="320.71" x2="-73.38" y2="320.71" gradientTransform="matrix(45.18, 0, 0, -45.18, 3368.8, 14524.32)" gradientUnits="userSpaceOnUse"><stop offset="0" stop-color="#999"/><stop offset="0.51" stop-color="#fff"/><stop offset="1" stop-color="#b3b3b3"/></linearGradient><clipPath id="clip-path-2"><path class="cls-6" d="M20.35,42.36a.79.79,0,1,0,0,1.57h21.3a.79.79,0,1,0,0-1.57Z"/></clipPath><mask id="mask-2" x="19.51" y="42.36" width="22.97" height="1.57" maskUnits="userSpaceOnUse"><rect class="cls-2" x="19.51" y="42.36" width="22.97" height="1.57"/></mask><linearGradient id="linear-gradient-8" x1="-73.4" y1="320.76" x2="-72.4" y2="320.76" gradientTransform="matrix(22.97, 0, 0, -22.97, 1705.55, 7411.7)" xlink:href="#linear-gradient-7"/><clipPath id="clip-path-3"><path class="cls-6" d="M20.35,34.72a.79.79,0,1,0,0,1.57h21.3a.79.79,0,1,0,0-1.57Z"/></clipPath><mask id="mask-3" x="19.51" y="34.72" width="22.97" height="1.57" maskUnits="userSpaceOnUse"><rect class="cls-3" x="19.51" y="34.72" width="22.97" height="1.57"/></mask><linearGradient id="linear-gradient-9" x1="-73.4" y1="320.76" x2="-72.4" y2="320.76" gradientTransform="matrix(22.97, 0, 0, -22.97, 1705.55, 7404.06)" xlink:href="#linear-gradient-7"/><clipPath id="clip-path-4"><path class="cls-6" d="M20.35,27.07a.79.79,0,1,0,0,1.57h21.3a.79.79,0,1,0,0-1.57Z"/></clipPath><mask id="mask-4" x="19.51" y="27.07" width="22.97" height="1.57" maskUnits="userSpaceOnUse"><rect class="cls-4" x="19.51" y="27.07" width="22.97" height="1.57"/></mask><linearGradient id="linear-gradient-10" x1="-73.4" y1="320.76" x2="-72.4" y2="320.76" gradientTransform="matrix(22.97, 0, 0, -22.97, 1705.55, 7396.41)" xlink:href="#linear-gradient-7"/><clipPath id="clip-path-5"><path class="cls-6" d="M20.35,49.27a.79.79,0,1,0,0,1.57h21.3a.79.79,0,1,0,0-1.57Z"/></clipPath><mask id="mask-5" x="19.51" y="49.27" width="22.97" height="1.57" maskUnits="userSpaceOnUse"><rect class="cls-5" x="19.51" y="49.27" width="22.97" height="1.57"/></mask><linearGradient id="linear-gradient-11" x1="-73.4" y1="320.76" x2="-72.4" y2="320.76" gradientTransform="matrix(22.97, 0, 0, -22.97, 1705.55, 7418.61)" xlink:href="#linear-gradient-7"/></defs><title>Asset 5report icon</title><g id="Layer_2" data-name="Layer 2"><g id="Layer_1-2" data-name="Layer 1"><rect class="cls-7" width="62" height="69.45" rx="8.87" ry="8.87"/><g class="cls-8"><g class="cls-9"><rect class="cls-10" x="8.41" y="7.93" width="45.18" height="53.59"/></g></g><g class="cls-11"><g class="cls-12"><rect class="cls-13" x="19.51" y="42.36" width="22.97" height="1.57"/></g></g><g class="cls-14"><g class="cls-15"><rect class="cls-16" x="19.51" y="34.72" width="22.97" height="1.57"/></g></g><g class="cls-17"><g class="cls-18"><rect class="cls-19" x="19.51" y="27.07" width="22.97" height="1.57"/></g></g><g class="cls-20"><g class="cls-21"><rect class="cls-22" x="19.51" y="49.27" width="22.97" height="1.57"/></g></g></g></g></svg>