<svg xmlns="http://www.w3.org/2000/svg" xmlns:xlink="http://www.w3.org/1999/xlink" viewBox="0 0 62 69.45"><defs><style>.cls-1{fill:url(#linear-gradient);}.cls-2{fill:url(#linear-gradient-2);}.cls-3{fill:url(#linear-gradient-3);}.cls-4{fill:url(#linear-gradient-4);}.cls-5{fill:url(#linear-gradient-5);}.cls-6{fill:url(#linear-gradient-6);}.cls-7{fill:url(#linear-gradient-7);}.cls-8{fill:url(#linear-gradient-8);}.cls-9{fill:url(#linear-gradient-9);}.cls-10{fill:none;}.cls-11{fill:url(#linear-gradient-10);}.cls-12{opacity:0.8;}.cls-13{clip-path:url(#clip-path);}.cls-14{clip-path:url(#clip-path-2);}.cls-15{mask:url(#mask);}.cls-16{fill:url(#linear-gradient-11);}.cls-17{clip-path:url(#clip-path-3);}.cls-18{clip-path:url(#clip-path-4);}.cls-19{mask:url(#mask-2);}.cls-20{fill:url(#linear-gradient-12);}.cls-21{clip-path:url(#clip-path-5);}.cls-22{clip-path:url(#clip-path-6);}.cls-23{mask:url(#mask-3);}.cls-24{fill:url(#linear-gradient-13);}.cls-25{clip-path:url(#clip-path-7);}.cls-26{clip-path:url(#clip-path-8);}.cls-27{mask:url(#mask-4);}.cls-28{fill:url(#linear-gradient-14);}.cls-29{clip-path:url(#clip-path-9);}.cls-30{clip-path:url(#clip-path-10);}.cls-31{mask:url(#mask-5);}.cls-32{fill:url(#linear-gradient-15);}.cls-33{clip-path:url(#clip-path-11);}.cls-34{clip-path:url(#clip-path-12);}.cls-35{mask:url(#mask-6);}.cls-36{fill:url(#linear-gradient-16);}.cls-37{clip-path:url(#clip-path-13);}.cls-38{clip-path:url(#clip-path-14);}.cls-39{mask:url(#mask-7);}.cls-40{fill:url(#linear-gradient-17);}.cls-41{clip-path:url(#clip-path-15);}.cls-42{clip-path:url(#clip-path-16);}.cls-43{mask:url(#mask-8);}.cls-44{fill:url(#linear-gradient-18);}.cls-45{clip-path:url(#clip-path-17);}.cls-46{clip-path:url(#clip-path-18);}.cls-47{mask:url(#mask-9);}.cls-48{fill:url(#linear-gradient-19);}</style><linearGradient id="linear-gradient" x1="-70.74" y1="407.02" x2="-69.74" y2="407.02" gradientTransform="matrix(10.11, 0, 0, -10.11, 726.93, 4127.95)" gradientUnits="userSpaceOnUse"><stop offset="0" stop-color="#4d4d4d"/><stop offset="0.51" stop-color="#fff"/><stop offset="1" stop-color="gray"/></linearGradient><linearGradient id="linear-gradient-2" x1="-68.67" y1="407.32" x2="-67.67" y2="407.32" gradientTransform="matrix(7, 0, 0, -7, 492.34, 2868.15)" xlink:href="#linear-gradient"/><linearGradient id="linear-gradient-3" x1="-74.39" y1="406.51" x2="-73.39" y2="406.51" gradientTransform="matrix(46.67, 0, 0, -46.67, 3479.25, 19029.51)" xlink:href="#linear-gradient"/><linearGradient id="linear-gradient-4" x1="-74.13" y1="406.54" x2="-73.13" y2="406.54" gradientTransform="matrix(37.16, 0, 0, -37.16, 2765.15, 15134)" xlink:href="#linear-gradient"/><linearGradient id="linear-gradient-5" x1="-68.68" y1="407.32" x2="-67.68" y2="407.32" gradientTransform="matrix(7.01, 0, 0, -7.01, 491.88, 2905.06)" xlink:href="#linear-gradient"/><linearGradient id="linear-gradient-6" x1="-68.68" y1="407.32" x2="-67.68" y2="407.32" gradientTransform="matrix(7.01, 0, 0, -7.01, 500.71, 2905.2)" xlink:href="#linear-gradient"/><linearGradient id="linear-gradient-7" x1="-68.69" y1="407.31" x2="-67.69" y2="407.31" gradientTransform="matrix(7.01, 0, 0, -7.01, 509.71, 2905.43)" xlink:href="#linear-gradient"/><linearGradient id="linear-gradient-8" x1="-68.69" y1="407.31" x2="-67.69" y2="407.31" gradientTransform="matrix(7.02, 0, 0, -7.02, 518.89, 2905.74)" xlink:href="#linear-gradient"/><linearGradient id="linear-gradient-9" x1="-68.71" y1="407.31" x2="-67.71" y2="407.31" gradientTransform="matrix(7.04, 0, 0, -7.04, 528.7, 2906.36)" xlink:href="#linear-gradient"/><linearGradient id="linear-gradient-10" x1="-76.53" y1="405.7" x2="-75.53" y2="405.7" gradientTransform="matrix(0, -69.45, -69.45, 0, 28207.34, -5245.46)" gradientUnits="userSpaceOnUse"><stop offset="0" stop-color="#184874"/><stop offset="0.14" stop-color="#133a5d"/><stop offset="0.36" stop-color="#0e2840"/><stop offset="0.58" stop-color="#091b2b"/><stop offset="0.8" stop-color="#07141e"/><stop offset="1" stop-color="#06111a"/></linearGradient><clipPath id="clip-path"><rect class="cls-10" x="11.62" y="11.31" width="10.11" height="1.77"/></clipPath><clipPath id="clip-path-2"><path class="cls-10" d="M12.39,11.31H21a.88.88,0,0,1,0,1.76H12.39a.89.89,0,0,1,0-1.76"/></clipPath><mask id="mask" x="11.62" y="11.31" width="10.11" height="1.77" maskUnits="userSpaceOnUse"><rect class="cls-1" x="11.62" y="11.31" width="10.11" height="1.77"/></mask><linearGradient id="linear-gradient-11" x1="-70.74" y1="407.02" x2="-69.74" y2="407.02" gradientTransform="matrix(10.11, 0, 0, -10.11, 726.93, 4127.95)" gradientUnits="userSpaceOnUse"><stop offset="0" stop-color="#999"/><stop offset="0.51" stop-color="#fff"/><stop offset="1" stop-color="#b3b3b3"/></linearGradient><clipPath id="clip-path-3"><rect class="cls-10" x="11.6" y="15.85" width="7" height="1.76"/></clipPath><clipPath id="clip-path-4"><path class="cls-10" d="M12.38,15.85h5.44a.88.88,0,0,1,0,1.76H12.38a.88.88,0,0,1,0-1.76"/></clipPath><mask id="mask-2" x="11.6" y="15.85" width="7" height="1.76" maskUnits="userSpaceOnUse"><rect class="cls-2" x="11.6" y="15.85" width="7" height="1.76"/></mask><linearGradient id="linear-gradient-12" x1="-68.67" y1="407.32" x2="-67.67" y2="407.32" gradientTransform="matrix(7, 0, 0, -7, 492.34, 2868.15)" xlink:href="#linear-gradient-11"/><clipPath id="clip-path-5"><rect class="cls-10" x="7.66" y="56.96" width="46.67" height="1.82"/></clipPath><clipPath id="clip-path-6"><path class="cls-10" d="M8.44,57,53.56,57a.88.88,0,0,1,0,1.76L8.44,58.72a.88.88,0,0,1,0-1.76"/></clipPath><mask id="mask-3" x="7.66" y="56.96" width="46.67" height="1.82" maskUnits="userSpaceOnUse"><rect class="cls-3" x="7.66" y="56.96" width="46.67" height="1.82"/></mask><linearGradient id="linear-gradient-13" x1="-74.39" y1="406.51" x2="-73.39" y2="406.51" gradientTransform="matrix(46.67, 0, 0, -46.67, 3479.25, 19029.51)" xlink:href="#linear-gradient-11"/><clipPath id="clip-path-7"><rect class="cls-10" x="10.79" y="10.67" width="37.16" height="34.8"/></clipPath><clipPath id="clip-path-8"><path class="cls-10" d="M43.51,17l.58-1.85a.66.66,0,0,1,1.26-.09L46.64,18a.65.65,0,0,0,.92.35.82.82,0,0,0,.31-1L45.14,11.1a.65.65,0,0,0-.92-.35h0l-5.5,3.1a.82.82,0,0,0-.31,1,.65.65,0,0,0,.92.35l2.47-1.39c.55-.31,1.16.29,1,1l-.53,1.7C37.49,31.61,25.48,42.27,11.41,43.92a.76.76,0,0,0-.61.84h0a.72.72,0,0,0,.76.71c14.61-1.71,27.07-12.78,32-28.45"/></clipPath><mask id="mask-4" x="10.76" y="10.56" width="37.28" height="34.95" maskUnits="userSpaceOnUse"><rect class="cls-4" x="10.76" y="10.56" width="37.28" height="34.95"/></mask><linearGradient id="linear-gradient-14" x1="-74.13" y1="406.54" x2="-73.13" y2="406.54" gradientTransform="matrix(37.16, 0, 0, -37.16, 2765.15, 15134)" xlink:href="#linear-gradient-11"/><clipPath id="clip-path-9"><rect class="cls-10" x="10.78" y="48.19" width="7.01" height="7.03"/></clipPath><clipPath id="clip-path-10"><path class="cls-10" d="M12.35,48.19a1.66,1.66,0,0,0-1.56,1.75v3.51a1.66,1.66,0,0,0,1.55,1.76h3.89a1.67,1.67,0,0,0,1.56-1.75V50a1.66,1.66,0,0,0-1.55-1.76Zm3.1,5.27H13.12a.83.83,0,0,1-.78-.88V50.82a.83.83,0,0,1,.78-.88h2.33a.83.83,0,0,1,.78.88v1.76a.83.83,0,0,1-.78.88"/></clipPath><mask id="mask-5" x="10.78" y="48.19" width="7.01" height="7.03" maskUnits="userSpaceOnUse"><rect class="cls-5" x="10.78" y="48.19" width="7.01" height="7.03"/></mask><linearGradient id="linear-gradient-15" x1="-68.68" y1="407.32" x2="-67.68" y2="407.32" gradientTransform="matrix(7.01, 0, 0, -7.01, 491.88, 2905.06)" xlink:href="#linear-gradient-11"/><clipPath id="clip-path-11"><rect class="cls-10" x="19.34" y="45.56" width="7.01" height="9.66"/></clipPath><clipPath id="clip-path-12"><path class="cls-10" d="M20.91,45.56a1.67,1.67,0,0,0-1.56,1.76v6.15a1.66,1.66,0,0,0,1.55,1.76h3.89a1.66,1.66,0,0,0,1.56-1.75V47.33a1.67,1.67,0,0,0-1.55-1.76ZM24,53.47H21.67a.83.83,0,0,1-.78-.88V48.2a.83.83,0,0,1,.78-.88H24a.83.83,0,0,1,.78.88v4.39a.83.83,0,0,1-.78.88"/></clipPath><mask id="mask-6" x="19.34" y="45.56" width="7.01" height="9.67" maskUnits="userSpaceOnUse"><rect class="cls-6" x="19.34" y="45.56" width="7.01" height="9.67"/></mask><linearGradient id="linear-gradient-16" x1="-68.68" y1="407.32" x2="-67.68" y2="407.32" gradientTransform="matrix(7.01, 0, 0, -7.01, 500.71, 2905.2)" xlink:href="#linear-gradient-11"/><clipPath id="clip-path-13"><rect class="cls-10" x="27.89" y="41.19" width="7.01" height="14.05"/></clipPath><clipPath id="clip-path-14"><path class="cls-10" d="M29.47,41.19a1.66,1.66,0,0,0-1.56,1.75V53.48a1.67,1.67,0,0,0,1.55,1.76h3.89a1.67,1.67,0,0,0,1.56-1.75V43a1.66,1.66,0,0,0-1.55-1.76Zm3.09,12.3H30.23a.83.83,0,0,1-.78-.88V43.82a.83.83,0,0,1,.78-.88h2.33a.83.83,0,0,1,.78.88v8.78a.83.83,0,0,1-.78.88"/></clipPath><mask id="mask-7" x="27.89" y="41.19" width="7.02" height="14.06" maskUnits="userSpaceOnUse"><rect class="cls-7" x="27.89" y="41.19" width="7.02" height="14.06"/></mask><linearGradient id="linear-gradient-17" x1="-68.69" y1="407.31" x2="-67.69" y2="407.31" gradientTransform="matrix(7.01, 0, 0, -7.01, 509.71, 2905.43)" xlink:href="#linear-gradient-11"/><clipPath id="clip-path-15"><rect class="cls-10" x="36.45" y="35.05" width="7.02" height="20.2"/></clipPath><clipPath id="clip-path-16"><path class="cls-10" d="M38,35.05a1.66,1.66,0,0,0-1.56,1.75l0,16.68A1.66,1.66,0,0,0,38,55.25h3.89a1.66,1.66,0,0,0,1.56-1.75l0-16.68a1.67,1.67,0,0,0-1.55-1.76Zm3.09,18.44H38.78a.83.83,0,0,1-.78-.88l0-14.93a.83.83,0,0,1,.78-.88h2.33a.83.83,0,0,1,.78.88l0,14.93a.83.83,0,0,1-.78.88"/></clipPath><mask id="mask-8" x="36.45" y="35.05" width="7.03" height="20.2" maskUnits="userSpaceOnUse"><rect class="cls-8" x="36.45" y="35.05" width="7.03" height="20.2"/></mask><linearGradient id="linear-gradient-18" x1="-68.69" y1="407.31" x2="-67.69" y2="407.31" gradientTransform="matrix(7.02, 0, 0, -7.02, 518.89, 2905.74)" xlink:href="#linear-gradient-11"/><clipPath id="clip-path-17"><rect class="cls-10" x="45.01" y="22.77" width="7.04" height="32.49"/></clipPath><clipPath id="clip-path-18"><path class="cls-10" d="M46.6,22.77A1.67,1.67,0,0,0,45,24.52l0,29a1.67,1.67,0,0,0,1.55,1.76h3.89A1.67,1.67,0,0,0,52,53.51l0-29a1.67,1.67,0,0,0-1.55-1.76Zm3.07,30.74H47.34a.83.83,0,0,1-.78-.88l0-27.22a.83.83,0,0,1,.78-.88h2.33a.83.83,0,0,1,.78.88l0,27.22a.83.83,0,0,1-.78.88"/></clipPath><mask id="mask-9" x="45.01" y="22.77" width="7.04" height="32.5" maskUnits="userSpaceOnUse"><rect class="cls-9" x="45.01" y="22.77" width="7.04" height="32.5"/></mask><linearGradient id="linear-gradient-19" x1="-68.71" y1="407.31" x2="-67.71" y2="407.31" gradientTransform="matrix(7.04, 0, 0, -7.04, 528.7, 2906.36)" xlink:href="#linear-gradient-11"/></defs><title>Asset 4analyze icon</title><g id="Layer_2" data-name="Layer 2"><g id="Layer_1-2" data-name="Layer 1"><rect class="cls-11" width="62" height="69.45" rx="8.87" ry="8.87"/><g class="cls-12"><g class="cls-13"><g class="cls-14"><g class="cls-15"><rect class="cls-16" x="11.62" y="11.31" width="10.11" height="1.77"/></g></g></g></g><g class="cls-12"><g class="cls-17"><g class="cls-18"><g class="cls-19"><rect class="cls-20" x="11.6" y="15.85" width="7" height="1.76"/></g></g></g></g><g class="cls-12"><g class="cls-21"><g class="cls-22"><g class="cls-23"><rect class="cls-24" x="7.66" y="56.96" width="46.67" height="1.82"/></g></g></g></g><g class="cls-12"><g class="cls-25"><g class="cls-26"><g class="cls-27"><rect class="cls-28" x="10.76" y="10.56" width="37.28" height="34.95"/></g></g></g></g><g class="cls-12"><g class="cls-29"><g class="cls-30"><g class="cls-31"><rect class="cls-32" x="10.78" y="48.19" width="7.01" height="7.03"/></g></g></g></g><g class="cls-12"><g class="cls-33"><g class="cls-34"><g class="cls-35"><rect class="cls-36" x="19.34" y="45.56" width="7.01" height="9.67"/></g></g></g></g><g class="cls-12"><g class="cls-37"><g class="cls-38"><g class="cls-39"><rect class="cls-40" x="27.89" y="41.19" width="7.02" height="14.06"/></g></g></g></g><g class="cls-12"><g class="cls-41"><g class="cls-42"><g class="cls-43"><rect class="cls-44" x="36.45" y="35.05" width="7.03" height="20.2"/></g></g></g></g><g class="cls-12"><g class="cls-45"><g class="cls-46"><g class="cls-47"><rect class="cls-48" x="45.01" y="22.77" width="7.04" height="32.5"/></g></g></g></g></g></g></svg>