<svg xmlns="http://www.w3.org/2000/svg" xmlns:xlink="http://www.w3.org/1999/xlink" viewBox="0 0 23.61 22.77"><defs><style>.cls-1{fill:none;}.cls-2{clip-path:url(#clip-path);}.cls-3{fill:#e02b4a;}</style><clipPath id="clip-path"><rect class="cls-1" width="23.61" height="22.77"/></clipPath></defs><title>Asset 10alert icon</title><g id="Layer_2" data-name="Layer 2"><g id="Layer_1-2" data-name="Layer 1"><g class="cls-2"><path class="cls-3" d="M21.89,22.77H1.72a1.68,1.68,0,0,1-1.49-.94A2,2,0,0,1,.23,20L10.32.94a1.65,1.65,0,0,1,3,0L23.38,20a2,2,0,0,1,0,1.87,1.68,1.68,0,0,1-1.49.94M10.69,1.17.61,20.2a1.5,1.5,0,0,0,0,1.4,1.26,1.26,0,0,0,1.11.7H21.89A1.26,1.26,0,0,0,23,21.6a1.5,1.5,0,0,0,0-1.4l-10.08-19a1.24,1.24,0,0,0-2.23,0"/><path class="cls-3" d="M21.89,21.57H1.72a.6.6,0,0,1-.53-.33.7.7,0,0,1,0-.67l10.08-19a.59.59,0,0,1,1.06,0l10.08,19a.71.71,0,0,1,0,.67.6.6,0,0,1-.53.33M11.81,1.36a.45.45,0,0,0-.41.26l-10.08,19a.54.54,0,0,0,0,.51.46.46,0,0,0,.41.26H21.89a.46.46,0,0,0,.41-.26.54.54,0,0,0,0-.51l-10.08-19a.45.45,0,0,0-.41-.26"/><path class="cls-3" d="M10.49,17.45a1.45,1.45,0,0,1,.34-1,1.3,1.3,0,0,1,1-.35,1.27,1.27,0,0,1,1,.36,1.44,1.44,0,0,1,.34,1,1.44,1.44,0,0,1-.35,1,1.25,1.25,0,0,1-1,.37,1.29,1.29,0,0,1-1-.36,1.43,1.43,0,0,1-.35-1m2.25-2.81H10.9l-.38-8h2.6Z"/></g></g></g></svg>