<svg xmlns="http://www.w3.org/2000/svg" xmlns:xlink="http://www.w3.org/1999/xlink" viewBox="0 0 119.23 119.23"><defs><style>.cls-1{fill:url(#linear-gradient);}.cls-2{fill:none;}.cls-3{fill:url(#linear-gradient-2);}.cls-4{clip-path:url(#clip-path);}.cls-5{mask:url(#mask);}.cls-6{fill:url(#linear-gradient-3);}</style><linearGradient id="linear-gradient" x1="-46.96" y1="259.87" x2="-45.96" y2="259.87" gradientTransform="matrix(71.4, 0, 0, -71.4, 3373.43, 18613.54)" gradientUnits="userSpaceOnUse"><stop offset="0" stop-color="#4d4d4d"/><stop offset="0.06" stop-color="#535353"/><stop offset="0.14" stop-color="#636363"/><stop offset="0.23" stop-color="#7e7e7e"/><stop offset="0.33" stop-color="#a3a3a3"/><stop offset="0.43" stop-color="#d2d2d2"/><stop offset="0.51" stop-color="#fff"/><stop offset="0.6" stop-color="#dedede"/><stop offset="0.72" stop-color="#b5b5b5"/><stop offset="0.83" stop-color="#989898"/><stop offset="0.93" stop-color="#868686"/><stop offset="1" stop-color="gray"/></linearGradient><linearGradient id="linear-gradient-2" x1="-51" y1="259.66" x2="-50" y2="259.66" gradientTransform="matrix(0, -69.45, -69.45, 0, 18093.44, -3447.98)" gradientUnits="userSpaceOnUse"><stop offset="0" stop-color="#184874"/><stop offset="0.14" stop-color="#133a5d"/><stop offset="0.36" stop-color="#0e2840"/><stop offset="0.58" stop-color="#091b2b"/><stop offset="0.8" stop-color="#07141e"/><stop offset="1" stop-color="#06111a"/></linearGradient><clipPath id="clip-path"><path class="cls-2" d="M59.29,42.44l0,.06a8.3,8.3,0,0,0,.22-2,8.31,8.31,0,0,1-.24,1.9m-12-.31h0a7.55,7.55,0,0,1-.3-1.91,7.26,7.26,0,0,0,.25,1.92m5.86,10.67-1.61,2.57.54.79L51.23,59a25.88,25.88,0,0,1-1.67-5.23l1.06,2.48Zm1,3.4.54-1-1.56-2.44,2.52,3.46,1.26-2.69a26.63,26.63,0,0,1-1.84,5.74,31.82,31.82,0,0,0-.92-3.12M48.46,41.45l-.08.3.1.55c.11.62,0,1.38.13,2,0,.18-.19.06-.22-.06a6.3,6.3,0,0,1-.15-1.15.55.55,0,0,0-.06-.29.91.91,0,0,0-.86-.56l0-.16a.62.62,0,0,0-.34.31,2.48,2.48,0,0,0,0,1.71c.23.93.83,1.57,1.4,1.56A7.34,7.34,0,0,0,49.9,49a7,7,0,0,0-2.43,2.55,39.24,39.24,0,0,0-4,1.7c-.39.17-.33.11-.51.5-.68,1.44-1.05,3.08-1.69,4.45a14.91,14.91,0,0,0,23.69,0c-.55-1.48-1-3-1.63-4.46-.15-.36-.09-.3-.43-.46a40.1,40.1,0,0,0-4.12-1.82,9,9,0,0,0-2.27-2.56,8.1,8.1,0,0,1,.24.84,8.19,8.19,0,0,1-1,1.4A11.76,11.76,0,0,1,53.23,51,6.14,6.14,0,0,1,51,50.27a4.84,4.84,0,0,1-1.19-1l.06-.25a7.23,7.23,0,0,0,3.27,1.41,4.84,4.84,0,0,0,3.32-1.5A7.44,7.44,0,0,0,58,45.71c.54-.06,1.08-.69,1.3-1.56a2.59,2.59,0,0,0,0-1.65l0,.12c-.32-.58-.9-.33-1.17.1a.54.54,0,0,0,0,.42A6.14,6.14,0,0,1,58,44.28c0,.12-.24.24-.22.06.1-.65,0-1.42.13-2a3.65,3.65,0,0,0-.3-.46c-2.06-1.71-6-1-7.21-3.41a11.55,11.55,0,0,0-2,3m-.08.13.08-.13a6.81,6.81,0,0,1,2-3.25,5.08,5.08,0,0,0,3.2,1.87c2,.22,3.26.81,4,1.77a3.32,3.32,0,0,1,.3.28c-.68-1.23-2-2-4.3-2.23A5.08,5.08,0,0,1,50.43,38a6.94,6.94,0,0,0-2.05,3.55m1.19-5.77A4.79,4.79,0,0,0,47,40.21,4.79,4.79,0,0,1,49.57,36a7.07,7.07,0,0,1,3.48-1.47H54.4a5.9,5.9,0,0,1,4.12,2.56,6.08,6.08,0,0,1,1,3.46,6.16,6.16,0,0,0-1-3.63,5.83,5.83,0,0,0-4.8-2.6,6.88,6.88,0,0,0-4.16,1.51M36.15,85.1c0-.81,1.11-1.47,2.49-1.47H68.54c1.38,0,2.49.66,2.49,1.47s-1.12,1.47-2.49,1.47H38.64c-1.38,0-2.49-.66-2.49-1.47m0-6.12c0-.81,1.11-1.47,2.49-1.47H68.54c1.38,0,2.49.66,2.49,1.47s-1.12,1.47-2.49,1.47H38.64c-1.38,0-2.49-.66-2.49-1.47m0-6.12c0-.81,1.11-1.47,2.49-1.47H68.54c1.38,0,2.49.66,2.49,1.47s-1.12,1.47-2.49,1.47H38.64c-1.38,0-2.49-.66-2.49-1.47m38.78,9V47h10.8V81.82c0,2.57-2.42,4.65-5.4,4.65s-5.4-2.08-5.4-4.65M34.65,49.22A18.37,18.37,0,1,1,53,67.58,18.37,18.37,0,0,1,34.65,49.22m-1.14-21.1a2.14,2.14,0,0,0-2,2.25V82.11c0,5,3.6,9,8,9H79.7c4.44,0,8-4,8-9v-36a2.14,2.14,0,0,0-2-2.25h-10V30.36a2.14,2.14,0,0,0-2-2.25Z"/></clipPath><mask id="mask" x="0" y="0" width="119.23" height="119.23" maskUnits="userSpaceOnUse"><rect class="cls-1" x="17.46" y="17.46" width="84.31" height="84.31" transform="translate(-24.69 59.61) rotate(-45)"/></mask><linearGradient id="linear-gradient-3" x1="-46.96" y1="259.87" x2="-45.96" y2="259.87" gradientTransform="matrix(71.4, 0, 0, -71.4, 3373.43, 18613.54)" gradientUnits="userSpaceOnUse"><stop offset="0" stop-color="#999"/><stop offset="0.09" stop-color="#9f9f9f"/><stop offset="0.2" stop-color="#afafaf"/><stop offset="0.32" stop-color="#c9c9c9"/><stop offset="0.46" stop-color="#eee"/><stop offset="0.51" stop-color="#fff"/><stop offset="0.62" stop-color="#e8e8e8"/><stop offset="0.77" stop-color="#cbcbcb"/><stop offset="0.9" stop-color="#b9b9b9"/><stop offset="1" stop-color="#b3b3b3"/></linearGradient></defs><title>Asset 6avatar icon</title><g id="Layer_2" data-name="Layer 2"><g id="Layer_1-2" data-name="Layer 1"><rect class="cls-3" x="28.61" y="24.89" width="62" height="69.45" rx="8.87" ry="8.87"/><g class="cls-4"><g class="cls-5"><rect class="cls-6" x="17.46" y="17.46" width="84.31" height="84.31" transform="translate(-24.69 59.61) rotate(-45)"/></g></g></g></g></svg>