<svg xmlns="http://www.w3.org/2000/svg" xmlns:xlink="http://www.w3.org/1999/xlink" viewBox="0 0 48.26 45.8"><defs><style>.cls-1{fill:none;}.cls-2{clip-path:url(#clip-path);}.cls-3{fill:url(#radial-gradient);}.cls-4{clip-path:url(#clip-path-2);}.cls-5{clip-path:url(#clip-path-3);}.cls-6{clip-path:url(#clip-path-4);}.cls-7{clip-path:url(#clip-path-5);}.cls-8{clip-path:url(#clip-path-6);}</style><clipPath id="clip-path"><path class="cls-1" d="M.27,22.9C.27,10.43,11,.29,24.11.29S47.95,10.43,47.95,22.9,37.26,45.51,24.11,45.51.27,35.37.27,22.9M0,22.9C0,35.51,10.82,45.77,24.11,45.77S48.22,35.51,48.22,22.9,37.41,0,24.11,0,0,10.29,0,22.9"/></clipPath><radialGradient id="radial-gradient" cx="-1657.67" cy="762.58" r="1" gradientTransform="matrix(0.41, 0, 0, -0.39, 801.93, 377.16)" gradientUnits="userSpaceOnUse"><stop offset="0" stop-color="#ccc"/><stop offset="0.01" stop-color="#ccc"/><stop offset="1" stop-color="#fff"/></radialGradient><clipPath id="clip-path-2"><path class="cls-1" d="M10.14,22.9C10.14,11,23,1.19,24.11.33c1.16.86,14,10.72,14,22.58s-12.82,21.71-14,22.58c-1.16-.86-14-10.72-14-22.58M24,.06C23.89.16,9.87,10.42,9.87,22.9S23.89,45.64,24,45.75l.08.06.08-.06c.14-.1,14.16-10.36,14.16-22.84S24.34.16,24.19.06L24.11,0Z"/></clipPath><clipPath id="clip-path-3"><rect class="cls-1" x="0.14" y="22.77" width="48.12" height="0.26"/></clipPath><clipPath id="clip-path-4"><path class="cls-1" d="M5.53,37.39l.21.16a24,24,0,0,1,18.37-8.34,24,24,0,0,1,18.37,8.34l.21-.16A24.28,24.28,0,0,0,24.11,29,24.28,24.28,0,0,0,5.53,37.39"/></clipPath><clipPath id="clip-path-5"><path class="cls-1" d="M5.53,8.41a24.28,24.28,0,0,0,18.58,8.44A24.27,24.27,0,0,0,42.69,8.41l-.21-.16a24,24,0,0,1-18.37,8.34A24,24,0,0,1,5.74,8.25Z"/></clipPath><clipPath id="clip-path-6"><rect class="cls-1" x="23.98" y="0.16" width="0.27" height="45.26"/></clipPath></defs><title>Asset 9world icon</title><g id="Layer_2" data-name="Layer 2"><g id="Layer_1-2" data-name="Layer 1"><g class="cls-2"><rect class="cls-3" y="0.03" width="48.22" height="45.74"/></g><g class="cls-4"><rect class="cls-3" x="9.87" width="28.49" height="45.8"/></g><g class="cls-5"><rect class="cls-3" x="0.14" y="22.77" width="48.12" height="0.26"/></g><g class="cls-6"><rect class="cls-3" x="5.53" y="28.95" width="37.17" height="8.6"/></g><g class="cls-7"><rect class="cls-3" x="5.53" y="8.25" width="37.17" height="8.6"/></g><g class="cls-8"><rect class="cls-3" x="23.98" y="0.16" width="0.27" height="45.26"/></g></g></g></svg>