<svg xmlns="http://www.w3.org/2000/svg" xmlns:xlink="http://www.w3.org/1999/xlink" viewBox="0 0 62 69.45"><defs><style>.cls-1{fill:url(#linear-gradient);}.cls-2{fill:url(#linear-gradient-2);}.cls-3{fill:url(#linear-gradient-3);}.cls-4{fill:url(#linear-gradient-4);}.cls-5{fill:url(#linear-gradient-5);}.cls-6{fill:url(#linear-gradient-6);}.cls-7{fill:url(#linear-gradient-7);}.cls-8{fill:url(#linear-gradient-8);}.cls-9{fill:url(#linear-gradient-9);}.cls-10{fill:none;}.cls-11{fill:url(#linear-gradient-10);}.cls-12{opacity:0.8;}.cls-13{clip-path:url(#clip-path);}.cls-14{clip-path:url(#clip-path-2);}.cls-15{mask:url(#mask);}.cls-16{fill:url(#linear-gradient-11);}.cls-17{clip-path:url(#clip-path-3);}.cls-18{mask:url(#mask-2);}.cls-19{fill:url(#linear-gradient-12);}.cls-20{clip-path:url(#clip-path-4);}.cls-21{mask:url(#mask-3);}.cls-22{fill:url(#linear-gradient-13);}.cls-23{clip-path:url(#clip-path-5);}.cls-24{mask:url(#mask-4);}.cls-25{fill:url(#linear-gradient-14);}.cls-26{clip-path:url(#clip-path-6);}.cls-27{mask:url(#mask-5);}.cls-28{fill:url(#linear-gradient-15);}.cls-29{clip-path:url(#clip-path-7);}.cls-30{mask:url(#mask-6);}.cls-31{fill:url(#linear-gradient-16);}.cls-32{clip-path:url(#clip-path-8);}.cls-33{mask:url(#mask-7);}.cls-34{fill:url(#linear-gradient-17);}.cls-35{clip-path:url(#clip-path-9);}.cls-36{mask:url(#mask-8);}.cls-37{fill:url(#linear-gradient-18);}.cls-38{clip-path:url(#clip-path-10);}.cls-39{mask:url(#mask-9);}.cls-40{fill:url(#linear-gradient-19);}</style><linearGradient id="linear-gradient" x1="-72.47" y1="492.75" x2="-71.47" y2="492.75" gradientTransform="matrix(46.21, 0, 0, -46.21, 3356.93, 22806.69)" gradientUnits="userSpaceOnUse"><stop offset="0" stop-color="#4d4d4d"/><stop offset="0.51" stop-color="#fff"/><stop offset="1" stop-color="gray"/></linearGradient><linearGradient id="linear-gradient-2" x1="-70.09" y1="493.12" x2="-69.09" y2="493.12" gradientTransform="matrix(13.22, 0, 0, -13.22, 958.3, 6544.52)" xlink:href="#linear-gradient"/><linearGradient id="linear-gradient-3" x1="-71.71" y1="492.86" x2="-70.71" y2="492.86" gradientTransform="matrix(25.8, 0, 0, -25.8, 1869.05, 12748.23)" xlink:href="#linear-gradient"/><linearGradient id="linear-gradient-4" x1="-67.38" y1="493.55" x2="-66.38" y2="493.55" gradientTransform="matrix(7.3, 0, 0, -7.3, 509, 3653.13)" xlink:href="#linear-gradient"/><linearGradient id="linear-gradient-5" x1="-67.38" y1="493.55" x2="-66.38" y2="493.55" gradientTransform="matrix(7.3, 0, 0, -7.3, 517.87, 3653.13)" xlink:href="#linear-gradient"/><linearGradient id="linear-gradient-6" x1="-69.41" y1="493.23" x2="-68.41" y2="493.23" gradientTransform="matrix(11, 0, 0, -11, 780.56, 5479.19)" xlink:href="#linear-gradient"/><linearGradient id="linear-gradient-7" x1="-61.19" y1="494.53" x2="-60.19" y2="494.53" gradientTransform="matrix(3.61, 0, 0, -3.61, 250.01, 1835.25)" xlink:href="#linear-gradient"/><linearGradient id="linear-gradient-8" x1="-63.27" y1="494.2" x2="-62.27" y2="494.2" gradientTransform="matrix(4.35, 0, 0, -4.35, 291.74, 2203.74)" xlink:href="#linear-gradient"/><linearGradient id="linear-gradient-9" x1="-69.12" y1="493.27" x2="-68.12" y2="493.27" gradientTransform="matrix(10.26, 0, 0, -10.26, 732.17, 5118.89)" xlink:href="#linear-gradient"/><linearGradient id="linear-gradient-10" x1="-73.31" y1="491.96" x2="-72.31" y2="491.96" gradientTransform="matrix(0, -69.45, -69.45, 0, 34198.12, -5022.26)" gradientUnits="userSpaceOnUse"><stop offset="0" stop-color="#184874"/><stop offset="0.14" stop-color="#133a5d"/><stop offset="0.36" stop-color="#0e2840"/><stop offset="0.58" stop-color="#091b2b"/><stop offset="0.8" stop-color="#07141e"/><stop offset="1" stop-color="#06111a"/></linearGradient><clipPath id="clip-path"><rect class="cls-10" x="7.89" y="8.65" width="46.21" height="52.16"/></clipPath><clipPath id="clip-path-2"><path class="cls-10" d="M53.94,12.2a.68.68,0,0,0-.47-.27L43.22,11,43,9.32a.71.71,0,0,0-.78-.67L32.75,10l-.12,0L19.57,8.72a.73.73,0,0,0-.75.7l-.19,2.53L8.5,13.35a.76.76,0,0,0-.6.86l5.17,45.52a2.38,2.38,0,0,0,.06.61.7.7,0,0,0,.64.47h34a.73.73,0,0,0,.69-.77V59l1.34.13a.73.73,0,0,0,.75-.7L54.1,12.76a.83.83,0,0,0-.16-.56M42.1,13.39H19.33l22.42-3.12Zm-22-3.08,6.07.57L20,11.75ZM9.36,14.78l3.71-.52v33.2Zm39.9,42.78-.77-.07V35.05a.7.7,0,1,0-1.39,0V59.27H14.46V14.93H47.1V31.47a.7.7,0,1,0,1.39,0V14.16a.73.73,0,0,0-.69-.77H43.5l-.1-.88,9.26.88Z"/></clipPath><mask id="mask" x="7.85" y="8.6" width="46.27" height="52.2" maskUnits="userSpaceOnUse"><rect class="cls-1" x="7.85" y="8.6" width="46.27" height="52.2"/></mask><linearGradient id="linear-gradient-11" x1="-72.47" y1="492.75" x2="-71.47" y2="492.75" gradientTransform="matrix(46.21, 0, 0, -46.21, 3356.93, 22806.69)" gradientUnits="userSpaceOnUse"><stop offset="0" stop-color="#999"/><stop offset="0.51" stop-color="#fff"/><stop offset="1" stop-color="#b3b3b3"/></linearGradient><clipPath id="clip-path-3"><path class="cls-10" d="M44.09,17.49h-3.7a.68.68,0,0,0-.58.34l-1.57,2.61a9.6,9.6,0,0,0-6-2.13.73.73,0,0,0-.69.77V29.73a.73.73,0,0,0,.69.77h9.62a.73.73,0,0,0,.69-.77,12,12,0,0,0-3.24-8.3L40.77,19h3.33a.77.77,0,0,0,0-1.54M41.15,29H33V19.87a8.37,8.37,0,0,1,4.53,1.85l-.62,1a.84.84,0,0,0,.13,1,.66.66,0,0,0,1-.16l.53-.88A10.34,10.34,0,0,1,41.15,29"/></clipPath><mask id="mask-2" x="31.56" y="17.49" width="13.22" height="13" maskUnits="userSpaceOnUse"><rect class="cls-2" x="31.56" y="17.49" width="13.22" height="13"/></mask><linearGradient id="linear-gradient-12" x1="-70.09" y1="493.12" x2="-69.09" y2="493.12" gradientTransform="matrix(13.22, 0, 0, -13.22, 958.3, 6544.52)" xlink:href="#linear-gradient-11"/><clipPath id="clip-path-4"><path class="cls-10" d="M44.09,42.88H37.82l-1.11-2A12,12,0,0,0,39.61,33a.73.73,0,0,0-.69-.77H30V22.35a.73.73,0,0,0-.69-.77C23.61,21.59,19,26.71,19,33S23.61,44.42,29.3,44.42A9.65,9.65,0,0,0,35.67,42l1.18,2.09a.68.68,0,0,0,.59.36h6.66a.77.77,0,0,0,0-1.54m-14.79,0c-4.92,0-8.92-4.43-8.92-9.88,0-5.19,3.63-9.46,8.23-9.85V33a.73.73,0,0,0,.69.77h8.9A10.4,10.4,0,0,1,36,39.58l-1.63-2.89a.66.66,0,0,0-1-.24.82.82,0,0,0-.22,1.06l1.78,3.16a8.37,8.37,0,0,1-5.63,2.22"/></clipPath><mask id="mask-3" x="18.99" y="21.59" width="25.8" height="22.83" maskUnits="userSpaceOnUse"><rect class="cls-3" x="18.99" y="21.59" width="25.8" height="22.83"/></mask><linearGradient id="linear-gradient-13" x1="-71.71" y1="492.86" x2="-70.71" y2="492.86" gradientTransform="matrix(25.8, 0, 0, -25.8, 1869.05, 12748.23)" xlink:href="#linear-gradient-11"/><clipPath id="clip-path-5"><path class="cls-10" d="M17.46,48.52h5.92a.77.77,0,0,0,0-1.54H17.46a.77.77,0,0,0,0,1.54"/></clipPath><mask id="mask-4" x="16.77" y="46.98" width="7.31" height="1.54" maskUnits="userSpaceOnUse"><rect class="cls-4" x="16.77" y="46.98" width="7.31" height="1.54"/></mask><linearGradient id="linear-gradient-14" x1="-67.38" y1="493.55" x2="-66.38" y2="493.55" gradientTransform="matrix(7.3, 0, 0, -7.3, 509, 3653.13)" xlink:href="#linear-gradient-11"/><clipPath id="clip-path-6"><path class="cls-10" d="M32.26,47H26.34a.77.77,0,0,0,0,1.54h5.92a.77.77,0,0,0,0-1.54"/></clipPath><mask id="mask-5" x="25.65" y="46.98" width="7.31" height="1.54" maskUnits="userSpaceOnUse"><rect class="cls-5" x="25.65" y="46.98" width="7.31" height="1.54"/></mask><linearGradient id="linear-gradient-15" x1="-67.38" y1="493.55" x2="-66.38" y2="493.55" gradientTransform="matrix(7.3, 0, 0, -7.3, 517.87, 3653.13)" xlink:href="#linear-gradient-11"/><clipPath id="clip-path-7"><path class="cls-10" d="M17.46,52.61h9.62a.77.77,0,0,0,0-1.54H17.46a.77.77,0,0,0,0,1.54"/></clipPath><mask id="mask-6" x="16.77" y="51.08" width="11" height="1.54" maskUnits="userSpaceOnUse"><rect class="cls-6" x="16.77" y="51.08" width="11" height="1.54"/></mask><linearGradient id="linear-gradient-16" x1="-69.41" y1="493.23" x2="-68.41" y2="493.23" gradientTransform="matrix(11, 0, 0, -11, 780.56, 5479.19)" xlink:href="#linear-gradient-11"/><clipPath id="clip-path-8"><path class="cls-10" d="M32.26,51.08H30a.77.77,0,0,0,0,1.54h2.22a.77.77,0,0,0,0-1.54"/></clipPath><mask id="mask-7" x="29.34" y="51.08" width="3.61" height="1.54" maskUnits="userSpaceOnUse"><rect class="cls-7" x="29.34" y="51.08" width="3.61" height="1.54"/></mask><linearGradient id="linear-gradient-17" x1="-61.19" y1="494.53" x2="-60.19" y2="494.53" gradientTransform="matrix(3.61, 0, 0, -3.61, 250.01, 1835.25)" xlink:href="#linear-gradient-11"/><clipPath id="clip-path-9"><path class="cls-10" d="M20.42,55.17h-3a.77.77,0,0,0,0,1.54h3a.77.77,0,0,0,0-1.54"/></clipPath><mask id="mask-8" x="16.77" y="55.17" width="4.35" height="1.54" maskUnits="userSpaceOnUse"><rect class="cls-8" x="16.77" y="55.17" width="4.35" height="1.54"/></mask><linearGradient id="linear-gradient-18" x1="-63.27" y1="494.2" x2="-62.27" y2="494.2" gradientTransform="matrix(4.35, 0, 0, -4.35, 291.74, 2203.74)" xlink:href="#linear-gradient-11"/><clipPath id="clip-path-10"><path class="cls-10" d="M32.26,55.17H23.38a.77.77,0,0,0,0,1.54h8.88a.77.77,0,0,0,0-1.54"/></clipPath><mask id="mask-9" x="22.69" y="55.17" width="10.26" height="1.54" maskUnits="userSpaceOnUse"><rect class="cls-9" x="22.69" y="55.17" width="10.26" height="1.54"/></mask><linearGradient id="linear-gradient-19" x1="-69.12" y1="493.27" x2="-68.12" y2="493.27" gradientTransform="matrix(10.26, 0, 0, -10.26, 732.17, 5118.89)" xlink:href="#linear-gradient-11"/></defs><title>Asset 3big view icon</title><g id="Layer_2" data-name="Layer 2"><g id="Layer_1-2" data-name="Layer 1"><rect class="cls-11" width="62" height="69.45" rx="8.87" ry="8.87"/><g class="cls-12"><g class="cls-13"><g class="cls-14"><g class="cls-15"><rect class="cls-16" x="7.85" y="8.6" width="46.27" height="52.2"/></g></g><g class="cls-17"><g class="cls-18"><rect class="cls-19" x="31.56" y="17.49" width="13.22" height="13"/></g></g><g class="cls-20"><g class="cls-21"><rect class="cls-22" x="18.99" y="21.59" width="25.8" height="22.83"/></g></g><g class="cls-23"><g class="cls-24"><rect class="cls-25" x="16.77" y="46.98" width="7.31" height="1.54"/></g></g><g class="cls-26"><g class="cls-27"><rect class="cls-28" x="25.65" y="46.98" width="7.31" height="1.54"/></g></g><g class="cls-29"><g class="cls-30"><rect class="cls-31" x="16.77" y="51.08" width="11" height="1.54"/></g></g><g class="cls-32"><g class="cls-33"><rect class="cls-34" x="29.34" y="51.08" width="3.61" height="1.54"/></g></g><g class="cls-35"><g class="cls-36"><rect class="cls-37" x="16.77" y="55.17" width="4.35" height="1.54"/></g></g><g class="cls-38"><g class="cls-39"><rect class="cls-40" x="22.69" y="55.17" width="10.26" height="1.54"/></g></g></g></g></g></g></svg>